<?xml version="1.0" encoding="utf-8"?>
<!-- Generator: Adobe Illustrator 27.5.0, SVG Export Plug-In . SVG Version: 6.00 Build 0)  -->
<!DOCTYPE svg PUBLIC "-//W3C//DTD SVG 1.1//EN" "http://www.w3.org/Graphics/SVG/1.1/DTD/svg11.dtd" [
	<!ENTITY ns_extend "http://ns.adobe.com/Extensibility/1.0/">
	<!ENTITY ns_ai "http://ns.adobe.com/AdobeIllustrator/10.0/">
	<!ENTITY ns_graphs "http://ns.adobe.com/Graphs/1.0/">
	<!ENTITY ns_vars "http://ns.adobe.com/Variables/1.0/">
	<!ENTITY ns_imrep "http://ns.adobe.com/ImageReplacement/1.0/">
	<!ENTITY ns_sfw "http://ns.adobe.com/SaveForWeb/1.0/">
	<!ENTITY ns_custom "http://ns.adobe.com/GenericCustomNamespace/1.0/">
	<!ENTITY ns_adobe_xpath "http://ns.adobe.com/XPath/1.0/">
]>
<svg version="1.1" id="Слой_3" xmlns:x="&ns_extend;" xmlns:i="&ns_ai;" xmlns:graph="&ns_graphs;"
	 xmlns="http://www.w3.org/2000/svg" xmlns:xlink="http://www.w3.org/1999/xlink" x="0px" y="0px" viewBox="0 0 368.5 93.1"
	 style="enable-background:new 0 0 368.5 93.1;" xml:space="preserve">
<style type="text/css">
	.st0{fill:#2A509B;}
	.st1{fill:#FFAB2C;}
</style>
<metadata>
	<sfw  xmlns="&ns_sfw;">
		<slices></slices>
		<sliceSourceBounds  bottomLeftOrigin="true" height="93.1" width="368.5" x="236.7" y="-344.2"></sliceSourceBounds>
	</sfw>
</metadata>
<g>
	<g>
		<path class="st0" d="M125.8,44.3c-1.5,0-2.9-0.2-4.1-0.6c-1.2-0.4-2.3-1.1-3.2-2c-0.9-0.9-1.6-2.1-2.1-3.6
			c-0.5-1.5-0.8-3.2-0.8-5.3V32c0-2,0.3-3.7,0.8-5.1c0.5-1.4,1.3-2.6,2.2-3.5c0.9-0.9,2-1.6,3.2-2c1.2-0.4,2.6-0.6,4-0.6
			c1.3,0,2.5,0.2,3.6,0.5c1.1,0.3,2.1,0.8,3,1.4c0.9,0.6,1.5,1.5,2.1,2.4c0.5,1,0.8,2.2,0.9,3.5h-5.1c-0.2-1.3-0.8-2.2-1.6-2.9
			c-0.8-0.6-1.8-0.9-2.9-0.9c-0.7,0-1.3,0.1-1.9,0.4c-0.6,0.2-1.2,0.6-1.6,1.2c-0.5,0.6-0.9,1.3-1.2,2.2c-0.3,0.9-0.4,2-0.4,3.4v0.6
			c0,1.4,0.2,2.6,0.5,3.6c0.3,1,0.7,1.7,1.2,2.3c0.5,0.6,1,1,1.7,1.2c0.6,0.2,1.2,0.4,1.9,0.4c1.2,0,2.2-0.3,3-1
			c0.8-0.6,1.3-1.6,1.5-2.8h5.1c-0.1,1.4-0.4,2.6-0.9,3.6c-0.5,1-1.2,1.8-2,2.4c-0.8,0.6-1.8,1.1-2.9,1.4
			C128.3,44.1,127.1,44.3,125.8,44.3z"/>
		<path class="st0" d="M139.2,21.2h4.9v9h9.7v-9h4.9v22.7h-4.9v-9.7h-9.7v9.7h-4.9V21.2z"/>
		<path class="st0" d="M176.4,39.2H168l-1.7,4.6h-4.7l8.4-22.7h4.9l8.4,22.7h-5.1L176.4,39.2z M169.5,35.2h5.4l-2.7-7.9L169.5,35.2z
			"/>
		<path class="st0" d="M186.2,21.2h16v4h-11.2v4.3h4.2c1.6,0,2.9,0.2,4,0.5c1.1,0.3,2.1,0.8,2.8,1.5c0.7,0.6,1.3,1.4,1.7,2.3
			c0.4,0.9,0.6,1.9,0.6,2.9c0,1.1-0.2,2.1-0.6,2.9c-0.4,0.9-0.9,1.6-1.7,2.3s-1.7,1.1-2.8,1.5c-1.1,0.3-2.5,0.5-4,0.5h-9.1V21.2z
			 M194.8,39.8c1.8,0,3-0.3,3.7-0.8c0.7-0.6,1-1.3,1-2.3c0-1-0.3-1.8-1-2.3c-0.7-0.6-1.9-0.8-3.7-0.8h-3.7v6.3H194.8z"/>
		<path class="st0" d="M213.6,32.1l-7.5-10.9h5.2l6,9.2h1.6v-9.2h4.9v9.2h1.6l6.2-9.2h5l-7.5,10.7l7.8,12h-5.4l-6.1-9.9h-1.6v9.9
			h-4.9V34h-1.6l-6.2,9.9h-5.3L213.6,32.1z"/>
		<path class="st0" d="M253.4,39.2H245l-1.7,4.6h-4.7l8.4-22.7h4.9l8.4,22.7h-5.1L253.4,39.2z M246.5,35.2h5.4l-2.7-7.9L246.5,35.2z
			"/>
		<path class="st0" d="M263.2,21.2h4.9v9h2.9c0.2-1.6,0.5-3.1,1.1-4.2c0.6-1.2,1.3-2.1,2.1-2.9c0.9-0.8,1.8-1.3,2.9-1.7
			s2.3-0.6,3.5-0.6c1.4,0,2.7,0.2,4,0.6c1.2,0.4,2.3,1.1,3.1,2c0.9,0.9,1.6,2.1,2.1,3.5c0.5,1.4,0.7,3.1,0.7,5.1v0.6
			c0,2.1-0.3,3.8-0.8,5.3c-0.5,1.5-1.2,2.7-2.1,3.6c-0.9,0.9-1.9,1.6-3.1,2.1c-1.2,0.4-2.5,0.6-3.9,0.6c-1.3,0-2.5-0.2-3.6-0.6
			c-1.1-0.4-2.1-1-3-1.8c-0.9-0.8-1.5-1.9-2.1-3.1c-0.5-1.3-0.9-2.8-1-4.6H268v9.7h-4.9V21.2z M280.5,40.2c0.7,0,1.3-0.1,1.9-0.4
			c0.6-0.2,1.1-0.7,1.5-1.2c0.4-0.6,0.8-1.4,1-2.3c0.2-0.9,0.4-2.1,0.4-3.6V32c0-1.3-0.1-2.5-0.4-3.4c-0.2-0.9-0.6-1.6-1-2.2
			c-0.4-0.6-0.9-1-1.5-1.2c-0.6-0.2-1.2-0.4-1.9-0.4c-0.7,0-1.3,0.1-1.9,0.4c-0.6,0.2-1.1,0.7-1.5,1.2c-0.4,0.6-0.8,1.3-1,2.2
			c-0.2,0.9-0.4,2-0.4,3.4v0.6c0,1.4,0.1,2.6,0.4,3.6c0.2,1,0.6,1.7,1,2.3c0.4,0.6,0.9,1,1.5,1.2C279.2,40,279.8,40.2,280.5,40.2z"
			/>
		<path class="st0" d="M294.6,21.2h4.9v18.7h6.2V21.2h4.9v18.7h6.2V21.2h4.9v18.7h2.8v8.2h-4.3v-4.2h-25.3V21.2z"/>
		<path class="st0" d="M341.2,39.2h-8.4l-1.7,4.6h-4.7l8.4-22.7h4.9l8.4,22.7H343L341.2,39.2z M334.3,35.2h5.4l-2.7-7.9L334.3,35.2z
			"/>
		<path class="st0" d="M355.5,35.1c-1.6-0.5-2.8-1.4-3.6-2.5c-0.8-1.1-1.2-2.5-1.2-4.1c0-1.1,0.2-2.1,0.6-3c0.4-0.9,0.9-1.7,1.6-2.3
			c0.7-0.6,1.6-1.1,2.7-1.5c1.1-0.3,2.3-0.5,3.7-0.5h9.2v22.7h-4.9v-8.3H360l-5,8.3h-5.3L355.5,35.1z M355.5,28.5
			c0,0.5,0.1,1,0.2,1.4c0.2,0.4,0.4,0.8,0.8,1c0.4,0.3,0.8,0.5,1.4,0.6c0.6,0.1,1.3,0.2,2.3,0.2h3.4v-6.5h-3.4
			c-0.9,0-1.7,0.1-2.3,0.2c-0.6,0.1-1.1,0.3-1.4,0.6c-0.4,0.3-0.6,0.6-0.8,1C355.6,27.5,355.5,27.9,355.5,28.5z"/>
		<path class="st0" d="M116.5,49.2h4.9v9.2h1.9l7.3-9.2h5.4l-8.9,10.7l9.2,12h-5.7l-7.3-9.9h-1.9v9.9h-4.9V49.2z"/>
		<path class="st0" d="M148.8,72.3c-1.4,0-2.8-0.2-4.1-0.6c-1.3-0.4-2.4-1.1-3.4-2c-1-0.9-1.8-2.1-2.3-3.6c-0.6-1.5-0.9-3.2-0.9-5.3
			v-0.6c0-2,0.3-3.7,0.9-5.1c0.6-1.4,1.4-2.6,2.3-3.5c1-0.9,2.1-1.6,3.4-2c1.3-0.4,2.6-0.6,4.1-0.6c1.4,0,2.8,0.2,4.1,0.6
			c1.3,0.4,2.4,1.1,3.4,2c1,0.9,1.8,2.1,2.3,3.5c0.6,1.4,0.9,3.1,0.9,5.1v0.6c0,2.1-0.3,3.8-0.9,5.3c-0.6,1.5-1.4,2.7-2.3,3.6
			s-2.1,1.6-3.4,2C151.6,72.1,150.2,72.3,148.8,72.3z M148.8,68.2c0.7,0,1.4-0.1,2.1-0.4c0.7-0.2,1.3-0.7,1.8-1.2
			c0.5-0.6,0.9-1.4,1.2-2.3c0.3-0.9,0.5-2.1,0.5-3.6v-0.6c0-1.3-0.2-2.5-0.5-3.4c-0.3-0.9-0.7-1.6-1.2-2.2c-0.5-0.6-1.1-1-1.8-1.2
			c-0.7-0.2-1.4-0.4-2.1-0.4c-0.7,0-1.4,0.1-2.1,0.4c-0.7,0.2-1.3,0.7-1.8,1.2c-0.5,0.6-0.9,1.3-1.2,2.2s-0.5,2-0.5,3.4v0.6
			c0,1.4,0.2,2.6,0.5,3.6c0.3,1,0.7,1.7,1.2,2.3c0.5,0.6,1.1,1,1.8,1.2C147.3,68.1,148,68.2,148.8,68.2z"/>
		<path class="st0" d="M163.7,49.2h4.9l6.9,12.8l6.9-12.8h4.7v22.7h-4.9V57.5l-5.3,9.9h-2.9l-5.3-9.9v14.4h-4.9V49.2z"/>
		<path class="st0" d="M192.2,49.2h19.1v22.7h-4.9V53.2h-9.4v18.7h-4.9V49.2z"/>
		<path class="st0" d="M229.1,67.3h-8.4l-1.7,4.6h-4.7l8.4-22.7h4.9l8.4,22.7h-5.1L229.1,67.3z M222.2,63.2h5.4l-2.7-7.9L222.2,63.2
			z"/>
		<path class="st0" d="M238.9,49.2h4.9v9h9.7v-9h4.9v22.7h-4.9v-9.7h-9.7v9.7h-4.9V49.2z"/>
		<path class="st0" d="M263.5,49.2h4.9v15.1l9.9-15.1h4.7v22.7h-4.9V56.8l-9.9,15.1h-4.7V49.2z"/>
		<path class="st0" d="M292.5,63.1c-1.6-0.5-2.8-1.4-3.6-2.5c-0.8-1.1-1.2-2.5-1.2-4.1c0-1.1,0.2-2.1,0.6-3c0.4-0.9,0.9-1.7,1.6-2.3
			c0.7-0.6,1.6-1.1,2.7-1.5c1.1-0.3,2.3-0.5,3.7-0.5h9.2v22.7h-4.9v-8.3H297l-5,8.3h-5.3L292.5,63.1z M292.5,56.5
			c0,0.5,0.1,1,0.2,1.4c0.2,0.4,0.4,0.8,0.8,1c0.4,0.3,0.8,0.5,1.4,0.6c0.6,0.1,1.3,0.2,2.3,0.2h3.4v-6.5h-3.4
			c-0.9,0-1.7,0.1-2.3,0.2c-0.6,0.1-1.1,0.3-1.4,0.6c-0.4,0.3-0.6,0.6-0.8,1C292.6,55.5,292.5,56,292.5,56.5z"/>
	</g>
	<g>
		<path class="st1" d="M47,93.1c21,0,38.9-14.1,44.8-33.4c-6.5,18.1-23.1,30.9-42.5,30.9c-25.1,0-44.8-21.3-43.8-47.9l1.5-12
			l-2.7-5.1C1.5,31.5,0,38.2,0,45.3C0,71.7,21,93.1,47,93.1z"/>
		<path class="st0" d="M32.8,58.9c0,0,1.4-2.8-0.3-4.3c-1.7-1.4-5.2-0.1-6.7,2.9c-1.5,2.9,1.6,5.9,4.6,4.3c0,0-0.9,3,0.9,4.1
			c2,1.4,4.4,0,4.4,0s-0.9,2.4,0.9,3.7s3.8,0.3,3.8,0.3s-0.7,2.4,1,3.4c1.7,1,4,0.4,5.4-2.1c1.4-2.5-0.2-5.9-4.3-3.7
			c0,0,1.5-2.9,0-4.5c-1.7-1.8-4.5,0-4.5,0s2.2-2.8,0.4-4.8C36.4,55.9,32.8,58.9,32.8,58.9z"/>
		<path class="st1" d="M66,52.8L55.7,41.3c-0.8-0.9-2.2-1.2-3.3-0.6l-1.8,0.9c-0.6,0.3-1.1,0.8-1.5,1.5l-1.7,3.2
			c-1.2,2.2-3.8,3.2-6.1,2.3c-2.7-1.1-3.8-4.2-2.5-6.7l2.8-5.4c0.5-0.9,1.2-1.6,2.1-2.1l4-2.1c0,0-1.3-1.9-4.7-1.7
			c-3.5,0.3-8.6,2-13.1,3.8c-4.5,1.8-4.5,1.6-6.5,1.1l-6.6,18.9c0,0,3.7,1.1,6.3,1.8c1,0.3,2.1-0.1,2.8-0.8c1-1.1,2.4-2,3.8-2.3
			c1.4-0.3,2.6,0,3.5,0.7c0.9,0.8,1.2,1.8,1.2,2.8c1.6-0.6,3.5-0.7,4.8,0.9c0.6,0.7,1.2,2,0.9,3.6c1.5-0.1,2.6,0.6,3.2,1.2
			c1,1,1.1,2.4,0.9,3.5c1.7-0.2,2.7,0.5,3.1,0.9c1.1,1.1,1.3,2.8,0.7,4.4c0.9,0.8,3,2.4,4.9,1.1c2-1.5,0.6-3.9,0.6-3.9
			s2.8,2,4.8,0.4c2-1.6,0.2-4.2,0.2-4.2s3.3,3,5.9,0.9c2.6-2.1-0.4-5.5-0.4-5.5s2.5,2.1,4.5,0.2C70.7,58.1,67.8,54.8,66,52.8z"/>
		<path class="st0" d="M42.2,37.5l-2.5,4.9c-0.9,1.8-0.2,4,1.5,4.9l0,0c1.8,1,4,0.4,5-1.4l2.4-4.2c0.1-0.2,0.4-0.4,0.6-0.6l2.5-1.3
			c1.6-0.8,3.5-0.5,4.7,0.8l11.9,13.2c1.2,1.4,3.1,1.8,4.9,1.2l6-2.1l-6.3-18.4l-2.5,0.8c-0.8,0.3-1.7,0.2-2.5-0.2l-8.5-4.3
			c-2.2-1.1-4.8-1.1-7,0l-8.4,4.4C43.3,35.9,42.7,36.6,42.2,37.5z"/>
		<path class="st0" d="M91.3,50.5l-0.1,1.1l2.1-0.1l3.6,0.5c0.1-1.4,0.1-2.8,0-4.2C95.2,21.4,75.7,0,49.8,0c-15,0-28.4,7.2-37,18.3
			C21.2,8.7,33.5,2.5,47.4,2.5C72.6,2.5,92.3,23.8,91.3,50.5z"/>
		<path class="st1" d="M4.3,25.4l-1.1,8l0.9,20.5l11.1,1.8l7.6-22.3L4.3,25.4z M13.6,53.3c-0.7,0-1.3-0.6-1.3-1.3
			c0-0.7,0.6-1.3,1.3-1.3c0.7,0,1.3,0.6,1.3,1.3C14.9,52.7,14.3,53.3,13.6,53.3z"/>
		<path class="st0" d="M88.7,26.1l-14.9,6l7.6,22.2l15.4-2.5L88.7,26.1z M83.3,52.3c-0.7,0-1.3-0.6-1.3-1.3c0-0.7,0.6-1.3,1.3-1.3
			s1.3,0.6,1.3,1.3C84.6,51.7,84,52.3,83.3,52.3z"/>
	</g>
</g>
</svg>
