<?xml version="1.0" encoding="iso-8859-1"?>
<!-- Generator: Adobe Illustrator 18.1.1, SVG Export Plug-In . SVG Version: 6.00 Build 0)  -->
<svg version="1.1" id="Capa_1" xmlns="http://www.w3.org/2000/svg" xmlns:xlink="http://www.w3.org/1999/xlink" x="0px" y="0px"
	 viewBox="0 0 512 512" style="enable-background:new 0 0 512 512;" xml:space="preserve">
<g>
	<g>
		<g>
			<polygon style="fill:#010002;" points="440,56 440,15 72,15 72,56 0,56 0,497 41,497 41,97 72,97 72,138 440,138 440,97 471,97 
				471,497 512,497 512,56 			"/>
			<path style="fill:#010002;" d="M431,292l-67-114c-3.333-6-8.333-9-15-9H163c-6.667,0-11.667,3-15,9L81,292c-5.333,0-10,2-14,6
				s-6,8.667-6,14v103c0,5.333,2,10,6,14s8.667,6,14,6h21v31c0,8.667,2.833,16,8.5,22s12.5,9,20.5,9h10c8.667,0,16.334-3.167,23-9.5
				c6.667-6.333,10-13.5,10-21.5v-31h164v31c0,8,3.333,15.167,10,21.5s14.333,9.5,23,9.5h10c8,0,14.833-3,20.5-9s8.5-13.333,8.5-22
				v-31h21c5.333,0,10-2,14-6s6-8.667,6-14V312c0-5.333-2-10-6-14S436.333,292,431,292z M134,366.5c-4.667,5-10.5,7.5-17.5,7.5
				s-13-2.5-18-7.5s-7.5-11-7.5-18s2.5-13,7.5-18s11-7.5,18-7.5s12.834,2.5,17.5,7.5c4.667,5,7,11,7,18S138.667,361.5,134,366.5z
				 M131,292l46-83c2.667-6,7.334-9,14-9h130c6.667,0,11.333,3,14,9l46,83H131z M413.5,366.5c-5,5-11,7.5-18,7.5
				s-12.833-2.5-17.5-7.5s-7-11-7-18s2.333-13,7-18s10.5-7.5,17.5-7.5s13,2.5,18,7.5s7.5,11,7.5,18S418.5,361.5,413.5,366.5z"/>
		</g>
	</g>
</g>
<g>
</g>
<g>
</g>
<g>
</g>
<g>
</g>
<g>
</g>
<g>
</g>
<g>
</g>
<g>
</g>
<g>
</g>
<g>
</g>
<g>
</g>
<g>
</g>
<g>
</g>
<g>
</g>
<g>
</g>
</svg>
