<?xml version="1.0" encoding="utf-8"?>
<!-- Generator: Adobe Illustrator 19.2.0, SVG Export Plug-In . SVG Version: 6.00 Build 0)  -->
<svg version="1.1" id="desktop" xmlns="http://www.w3.org/2000/svg" xmlns:xlink="http://www.w3.org/1999/xlink" x="0px" y="0px"
	 viewBox="0 0 240 160" enable-background="new 0 0 240 160" xml:space="preserve">
<g>
	<path fill="none" d="M76,120h60V44H12v76h56H76z M54.828,58.828l-24,24C30.0467,83.6093,29.0235,84,28,84
		c-1.0237,0-2.0469-0.3907-2.828-1.172c-1.5629-1.5623-1.5629-4.0935,0-5.656l24-24c1.5623-1.5627,4.0935-1.5627,5.656,0
		C56.3907,54.7345,56.3907,57.2657,54.828,58.828z"/>
	<circle fill="none" cx="196" cy="80" r="4"/>
	<path fill="none" d="M160,8v144h56V8H160z M196,92c-6.6173,0-12-5.3827-12-12c0-6.6171,5.3827-12,12-12c6.6171,0,12,5.3829,12,12
		C208,86.6173,202.6171,92,196,92z M208,28h-40v-8h40V28z"/>
	<path d="M8,128h60v12H52v8h40v-8H76v-12h64c2.2107,0,4-1.7891,4-4V40c0-2.2107-1.7893-4-4-4H8c-2.2109,0-4,1.7893-4,4v84
		C4,126.2109,5.7891,128,8,128z M12,44h124v76H76h-8H12V44z"/>
	<rect x="168" y="20" width="40" height="8"/>
	<path d="M196,68c-6.6173,0-12,5.3829-12,12c0,6.6173,5.3827,12,12,12c6.6171,0,12-5.3827,12-12C208,73.3829,202.6171,68,196,68z
		 M196,84c-2.2073,0-4-1.7927-4-4c0-2.2071,1.7927-4,4-4c2.2071,0,4,1.7929,4,4C200,82.2073,198.2071,84,196,84z"/>
	<path d="M49.172,53.172l-24,24c-1.5629,1.5625-1.5629,4.0937,0,5.656C25.9531,83.6093,26.9763,84,28,84
		c1.0235,0,2.0467-0.3907,2.828-1.172l24-24c1.5627-1.5623,1.5627-4.0935,0-5.656C53.2655,51.6093,50.7343,51.6093,49.172,53.172z"
		/>
	<path d="M224,152V4c0-2.2107-1.7893-4-4-4h-64c-2.2109,0-4,1.7893-4,4v148H0v8h156h64h20v-8H224z M160,152V8h56v144H160z"/>
</g>
</svg>
