<?xml version="1.0" ?><svg xmlns="http://www.w3.org/2000/svg" xmlns:xlink="http://www.w3.org/1999/xlink" version="1.1" viewBox="0 0 512 512" style="enable-background:new 0 0 512 512;" xml:space="preserve"><g id="_x31_9_x2C__Settings_x2C__Electronics_x2C__Electricity_x2C__Setup_x2C__setting_x2C__Configuration_x2C__Gear_x2C__Power"><g><path d="M468.468,201.391c-7.848,0-14.818-4.966-17.346-12.357c-2.768-8.091-6.073-16.079-9.826-23.738    c-3.416-6.975-1.983-15.388,3.564-20.935c14.961-14.961,14.961-39.305,0-54.266l-22.954-22.954    c-14.961-14.96-39.306-14.961-54.267,0c-5.548,5.548-13.96,6.98-20.934,3.563c-7.663-3.753-15.65-7.059-23.74-9.825    c-7.39-2.527-12.355-9.498-12.355-17.364c0-21.158-17.214-38.372-38.372-38.372h-32.475c-21.158,0-38.372,17.214-38.372,38.39    c0,7.848-4.966,14.819-12.355,17.346c-8.09,2.767-16.077,6.072-23.74,9.826c-6.975,3.418-15.388,1.983-20.934-3.563    c-14.961-14.961-39.306-14.96-54.267,0L67.141,90.095c-14.961,14.962-14.961,39.305,0,54.266    c5.547,5.547,6.979,13.961,3.563,20.934c-3.753,7.661-7.059,15.648-9.826,23.74c-2.527,7.391-9.498,12.356-17.363,12.356    c-21.158,0-38.372,17.214-38.372,38.372v32.474c0,21.158,17.214,38.372,38.39,38.372c7.848,0,14.818,4.966,17.346,12.357    c2.768,8.091,6.073,16.079,9.826,23.738c3.416,6.975,1.983,15.388-3.563,20.935c-14.961,14.961-14.961,39.305,0,54.266    l22.954,22.954c14.961,14.96,39.306,14.961,54.267,0c5.548-5.547,13.959-6.98,20.934-3.563c7.663,3.753,15.65,7.059,23.74,9.825    c7.39,2.527,12.355,9.499,12.355,17.364c0,21.158,17.214,38.372,38.372,38.372h32.475c21.158,0,38.372-17.214,38.372-38.39    c0-7.848,4.966-14.819,12.355-17.346c8.09-2.767,16.077-6.072,23.74-9.826c6.974-3.418,15.387-1.984,20.934,3.563    c14.961,14.961,39.306,14.96,54.267,0l22.954-22.954c14.961-14.961,14.961-39.305,0-54.266    c-5.547-5.547-6.979-13.961-3.564-20.934c3.753-7.661,7.059-15.648,9.826-23.74c2.527-7.391,9.498-12.356,17.363-12.356    c21.158,0,38.372-17.214,38.372-38.372v-32.474C506.857,218.605,489.644,201.391,468.468,201.391z M486.857,272.237    c0,10.13-8.241,18.372-18.39,18.372c-16.399,0-30.976,10.402-36.27,25.885c-2.496,7.299-5.479,14.504-8.863,21.414    c-7.176,14.651-4.209,32.283,7.382,43.874c7.163,7.164,7.163,18.819,0,25.982l-22.954,22.954c-7.161,7.163-18.818,7.165-25.981,0    c-11.594-11.592-29.224-14.559-43.875-7.381c-6.91,3.385-14.114,6.367-21.412,8.862c-15.482,5.294-25.885,19.87-25.885,36.288    c0,10.13-8.242,18.372-18.372,18.372h-32.475c-10.13,0-18.372-8.242-18.372-18.39c0-16.4-10.402-30.976-25.885-36.27    c-7.298-2.495-14.502-5.477-21.412-8.862c-14.78-7.24-32.389-4.104-43.875,7.381c-7.162,7.165-18.819,7.164-25.981,0    l-22.954-22.954c-7.163-7.163-7.163-18.818,0-25.982c11.591-11.591,14.558-29.222,7.382-43.875    c-3.385-6.909-6.367-14.113-8.863-21.413c-5.294-15.482-19.87-25.885-36.287-25.885c-10.131,0-18.372-8.242-18.372-18.372v-32.474    c0-10.13,8.241-18.372,18.39-18.372c16.399,0,30.976-10.402,36.27-25.885c2.496-7.299,5.478-14.504,8.863-21.413    c7.176-14.651,4.209-32.283-7.382-43.874c-7.163-7.163-7.163-18.819,0-25.982l22.954-22.954c7.161-7.163,18.818-7.165,25.981,0    c11.592,11.591,29.223,14.557,43.875,7.381c6.91-3.385,14.114-6.367,21.412-8.862c0,0,0,0,0,0    c15.482-5.294,25.885-19.87,25.885-36.288c0-10.13,8.242-18.372,18.372-18.372h32.475c10.13,0,18.372,8.242,18.372,18.39    c0,16.4,10.402,30.976,25.885,36.27c7.298,2.495,14.502,5.477,21.412,8.862c14.651,7.177,32.282,4.21,43.875-7.381    c7.163-7.164,18.82-7.163,25.981,0l22.954,22.954c7.163,7.163,7.163,18.818,0,25.982c-11.591,11.591-14.558,29.222-7.382,43.875    c3.385,6.909,6.367,14.113,8.863,21.413c5.294,15.482,19.87,25.885,36.287,25.885c10.131,0,18.372,8.242,18.372,18.372V272.237z"/><path d="M256,106c-82.71,0-150,67.29-150,150s67.29,150,150,150s150-67.29,150-150S338.71,106,256,106z M256,386    c-71.683,0-130-58.318-130-130s58.317-130,130-130s130,58.318,130,130S327.683,386,256,386z"/><path d="M321,216h-49.229l18.515-46.286C292.911,163.148,288.063,156,281,156h-50c-4.089,0-7.767,2.489-9.285,6.286l-40,100    C179.089,268.852,183.937,276,191,276h37.192l-16.894,67.575c-1.132,4.524,1.016,9.23,5.174,11.342    c4.153,2.107,9.218,1.075,12.21-2.515l100-120C334.104,225.894,329.455,216,321,216z"/></g></g><g id="Layer_1"/></svg>