<?xml version="1.0" ?><svg data-name="Layer 1" id="Layer_1" viewBox="0 0 512 512" xmlns="http://www.w3.org/2000/svg"><title/><path d="M315.34,86.94h-58.6a8,8,0,0,0-6.32,3.1l-24.64,31.81a8,8,0,0,0,6.33,12.9h83.23a8,8,0,0,0,8-8V94.94A8,8,0,0,0,315.34,86.94Zm-8,31.81H248.42l12.24-15.81h46.68Zm83.24-15.43H343.79V74.5a8,8,0,0,0-8-8H246.72a8,8,0,0,0-6.33,3.1l-55.18,71.25-17.93,9-2.9-5.8,4.22-2.1a8,8,0,0,0,3.57-10.73l-11-22a8,8,0,0,0-10.74-3.58l-49.65,24.83a8,8,0,0,0-3.58,10.74l11,21.94a8,8,0,0,0,7.16,4.43,7.9,7.9,0,0,0,3.57-.85l4.21-2.1,2.9,5.78-11.9,5.95-.09.05-.43.24-.28.17-.33.24a3.81,3.81,0,0,0-.32.24l-.24.21c-.12.1-.24.2-.35.31l-.18.2c-.12.12-.23.24-.34.37l-.18.23-.28.38-.2.31c-.06.11-.13.22-.2.33s-.13.27-.2.4-.09.19-.13.28-.12.3-.18.46-.07.17-.1.26l-.12.45a2.81,2.81,0,0,0-.08.31c0,.13,0,.26-.07.39a2.9,2.9,0,0,0-.06.41,3.16,3.16,0,0,0,0,.32l0,.49v237a25.06,25.06,0,0,0,25,25H390.58a25.06,25.06,0,0,0,25-25V128.36A25.06,25.06,0,0,0,390.58,103.32ZM115.12,141.23l35.34-17.68,3.82,7.64-4.2,2.1h0l-26.92,13.47h0l-4.2,2.1Zm34.95,10L153,157l-12.62,6.31-2.89-5.79ZM250.64,82.5h77.15v56.69H206.73Zm149,338a9,9,0,0,1-9,9H134.76a9,9,0,0,1-9-9v-232l66.58-33.29H335.79a8,8,0,0,0,8-8V119.32h46.79a9,9,0,0,1,9,9ZM359.78,377.6a8,8,0,0,1-11.32,11.31l-85.19-85.2-85.21,85.21a8,8,0,0,1-11.31-11.32L252,292.4l-85.19-85.19a8,8,0,0,1,11.31-11.32l85.2,85.2,85.19-85.2a8,8,0,1,1,11.31,11.32L274.58,292.4Z"/></svg>